<svg xmlns="http://www.w3.org/2000/svg" width="60px" height="60px" viewBox="0 0 50.61 60.01"><path d="M10.6,11.7a5.85,5.85,0,1,1,5.8-5.8A5.85,5.85,0,0,1,10.6,11.7ZM10.6,1A4.82,4.82,0,0,0,5.7,5.8a4.89,4.89,0,0,0,4.8,4.9A4.85,4.85,0,1,0,10.6,1Z" transform="translate(-4.7 0.01)" fill="#c5a26f"></path><path d="M10.6,26.5a.47.47,0,0,1-.5-.5V11.2a.5.5,0,0,1,1,0V26A.54.54,0,0,1,10.6,26.5Z" transform="translate(-4.7 0.01)" fill="#c5a26f"></path><path d="M10.6,26.5c-.1,0-.3,0-.3-.1a.37.37,0,0,1-.1-.3v-.2c0-.1.1-.1.1-.2a.35.35,0,0,1,.2-.1.44.44,0,0,1,.5.1.35.35,0,0,1,.1.2v.2c0,.1,0,.3-.1.3a.35.35,0,0,1-.2.1C10.8,26.4,10.7,26.5,10.6,26.5Z" transform="translate(-4.7 0.01)" fill="#c5a26f"></path><path d="M13.1,60h-5a.47.47,0,0,1-.5-.5V30a.5.5,0,0,1,1,0V59h4V30a.5.5,0,0,1,1,0V59.5A.47.47,0,0,1,13.1,60Z" transform="translate(-4.7 0.01)" fill="#c5a26f"></path><path d="M13,30.5a.47.47,0,0,1-.5-.5V28.1a1.75,1.75,0,0,0-1.7-1.7h-.6a1.75,1.75,0,0,0-1.7,1.7V30a.5.5,0,0,1-1,0V28.1a2.75,2.75,0,0,1,2.7-2.7h.6a2.69,2.69,0,0,1,2.7,2.7V30A.47.47,0,0,1,13,30.5Z" transform="translate(-4.7 0.01)" fill="#c5a26f"></path><path d="M13.1,47.5h-5a.47.47,0,0,1-.5-.5V34.8a.47.47,0,0,1,.5-.5h5a.47.47,0,0,1,.5.5V47A.47.47,0,0,1,13.1,47.5Zm-4.5-1h4V35.3h-4Z" transform="translate(-4.7 0.01)" fill="#c5a26f"></path><path d="M10.4,39c-.1,0-.3,0-.3-.1a.37.37,0,0,1-.1-.3c0-.1,0-.3.1-.3a.35.35,0,0,1,.2-.1h.4c.1,0,.1.1.2.1a.35.35,0,0,1,.1.2v.2c0,.1,0,.3-.1.3S10.6,39,10.4,39Z" transform="translate(-4.7 0.01)" fill="#c5a26f"></path><path d="M10.4,42.5a.47.47,0,0,1-.5-.5V40.8a.5.5,0,0,1,1,0V42A.47.47,0,0,1,10.4,42.5Z" transform="translate(-4.7 0.01)" fill="#c5a26f"></path><path d="M10.4,43.8h-.2c-.1,0-.1-.1-.2-.1a.37.37,0,0,1-.1-.3v-.2c0-.1.1-.1.1-.2a.48.48,0,0,1,.7,0,.37.37,0,0,1,.1.3c0,.1,0,.3-.1.3S10.6,43.8,10.4,43.8Z" transform="translate(-4.7 0.01)" fill="#c5a26f"></path><path d="M33.9,47.5h-5a.47.47,0,0,1-.5-.5V34.8a.47.47,0,0,1,.5-.5h5a.47.47,0,0,1,.5.5V47A.47.47,0,0,1,33.9,47.5Zm-4.5-1h4V35.3h-4Z" transform="translate(-4.7 0.01)" fill="#c5a26f"></path><path d="M31.2,39c-.1,0-.3,0-.3-.1a.37.37,0,0,1-.1-.3c0-.1,0-.3.1-.3a.44.44,0,0,1,.5-.1c.1,0,.1.1.2.1a.35.35,0,0,1,.1.2v.2c0,.1,0,.3-.1.3a.35.35,0,0,1-.2.1C31.3,38.9,31.2,39,31.2,39Z" transform="translate(-4.7 0.01)" fill="#c5a26f"></path><path d="M31.2,42.5a.47.47,0,0,1-.5-.5V40.8a.5.5,0,0,1,1,0V42A.47.47,0,0,1,31.2,42.5Z" transform="translate(-4.7 0.01)" fill="#c5a26f"></path><path d="M31.2,43.8H31c-.1,0-.1-.1-.2-.1a.37.37,0,0,1-.1-.3v-.2c0-.1.1-.1.1-.2a.48.48,0,0,1,.7,0,.35.35,0,0,1,.1.2v.2c0,.1,0,.3-.1.3a.35.35,0,0,1-.2.1Z" transform="translate(-4.7 0.01)" fill="#c5a26f"></path><path d="M53.3,47.5h-5a.47.47,0,0,1-.5-.5V34.8a.47.47,0,0,1,.5-.5h5a.47.47,0,0,1,.5.5V47A.47.47,0,0,1,53.3,47.5Zm-4.5-1h4V35.3h-4Z" transform="translate(-4.7 0.01)" fill="#c5a26f"></path><path d="M50.7,39c-.1,0-.3,0-.3-.1a.35.35,0,0,1-.1-.2v-.4c0-.1.1-.1.1-.2a.35.35,0,0,1,.2-.1H51c.1,0,.1.1.2.1a.37.37,0,0,1,.1.3v.2c0,.1-.1.1-.1.2a.35.35,0,0,1-.2.1A.44.44,0,0,0,50.7,39Z" transform="translate(-4.7 0.01)" fill="#c5a26f"></path><path d="M50.7,42.5a.47.47,0,0,1-.5-.5V40.8a.5.5,0,0,1,1,0V42C51.1,42.3,50.9,42.5,50.7,42.5Z" transform="translate(-4.7 0.01)" fill="#c5a26f"></path><path d="M50.7,43.8c-.1,0-.3,0-.3-.1a.37.37,0,0,1-.1-.3c0-.1,0-.3.1-.3a.35.35,0,0,1,.2-.1H51c.1,0,.1.1.2.1a.37.37,0,0,1,.1.3v.2c0,.1-.1.1-.1.2a.35.35,0,0,1-.2.1A.77.77,0,0,0,50.7,43.8Z" transform="translate(-4.7 0.01)" fill="#c5a26f"></path><path d="M31.4,26.4c-.1,0-.3,0-.3-.1a.35.35,0,0,1-.1-.2v-.4c0-.1.1-.1.1-.2a.48.48,0,0,1,.7,0,.35.35,0,0,1,.1.2v.4c0,.1-.1.1-.1.2C31.6,26.3,31.5,26.4,31.4,26.4Z" transform="translate(-4.7 0.01)" fill="#c5a26f"></path><path d="M27.3,7.8a.52.52,0,0,1-.4-.2,4.81,4.81,0,0,1-.7-2.4,5.1,5.1,0,0,1,5-5.1.47.47,0,0,1,.5.5c0,.3-.1.4-.4.4a4.1,4.1,0,0,0-4,4.1A3.83,3.83,0,0,0,27.8,7a.49.49,0,0,1-.1.7C27.5,7.7,27.4,7.8,27.3,7.8Z" transform="translate(-4.7 0.01)" fill="#c5a26f"></path><path d="M34.9,1H31.3a.47.47,0,0,1-.5-.5.47.47,0,0,1,.5-.5h3.6a.47.47,0,0,1,.5.5A.47.47,0,0,1,34.9,1Z" transform="translate(-4.7 0.01)" fill="#c5a26f"></path><path d="M31.3,26.4a.47.47,0,0,1-.5-.5V15.6a4.19,4.19,0,0,0-.5-2L26.9,7.4a.66.66,0,0,1,.2-.7.66.66,0,0,1,.7.2l3.4,6.2a5.66,5.66,0,0,1,.6,2.4V25.7C31.8,26.1,31.6,26.4,31.3,26.4Z" transform="translate(-4.7 0.01)" fill="#c5a26f"></path><path d="M33.9,60H28.8a.47.47,0,0,1-.5-.5V29.9a.5.5,0,0,1,1,0V59h4.1V29.9a.5.5,0,0,1,1,0V59.5A.47.47,0,0,1,33.9,60Z" transform="translate(-4.7 0.01)" fill="#c5a26f"></path><path d="M33.8,30.4a.47.47,0,0,1-.5-.5V28a1.77,1.77,0,0,0-1.8-1.7H31A1.75,1.75,0,0,0,29.3,28v1.9a.5.5,0,0,1-1,0V28A2.69,2.69,0,0,1,31,25.3h.6A2.78,2.78,0,0,1,34.4,28v1.9A.63.63,0,0,1,33.8,30.4Z" transform="translate(-4.7 0.01)" fill="#c5a26f"></path><path d="M50.8,26.4c-.1,0-.3,0-.3-.1a.37.37,0,0,1-.1-.3v-.2c0-.1.1-.1.1-.2a.48.48,0,0,1,.7,0,.35.35,0,0,1,.1.2v.4c0,.1-.1.1-.1.2C51,26.3,50.9,26.4,50.8,26.4Z" transform="translate(-4.7 0.01)" fill="#c5a26f"></path><path d="M50.8,26.4a.47.47,0,0,1-.5-.5V15.5a6.44,6.44,0,0,0-.7-2.8L47.3,8.6a2.63,2.63,0,0,1,.6-3.3L54.5.1a.49.49,0,0,1,.7.1.49.49,0,0,1-.1.7L48.5,6.1a1.68,1.68,0,0,0-.4,2l2.3,4.1a7.31,7.31,0,0,1,.8,3.3V25.8C51.2,26.1,51,26.4,50.8,26.4Z" transform="translate(-4.7 0.01)" fill="#c5a26f"></path><path d="M53.3,60h-5a.47.47,0,0,1-.5-.5V29.9a.5.5,0,1,1,1,0V59h4V29.9a.5.5,0,1,1,1,0V59.5A.47.47,0,0,1,53.3,60Z" transform="translate(-4.7 0.01)" fill="#c5a26f"></path><path d="M53.2,30.4a.47.47,0,0,1-.5-.5V28A1.75,1.75,0,0,0,51,26.3h-.6A1.75,1.75,0,0,0,48.7,28v1.9a.5.5,0,0,1-1,0V28a2.69,2.69,0,0,1,2.7-2.7H51A2.75,2.75,0,0,1,53.7,28v1.9A.47.47,0,0,1,53.2,30.4Z" transform="translate(-4.7 0.01)" fill="#c5a26f"></path></svg>